<?xml version="1.0" encoding="UTF-8"?>
<svg width="180px" height="302px" viewBox="0 0 180 302" version="1.1" xmlns="http://www.w3.org/2000/svg" xmlns:xlink="http://www.w3.org/1999/xlink">
    <title>Symbols</title>
    <defs>
        <radialGradient cx="50%" cy="88.3762669%" fx="50%" fy="88.3762669%" r="148.275737%" gradientTransform="translate(0.500000,0.883763),scale(1.000000,0.596026),rotate(-90.000000),translate(-0.500000,-0.883763)" id="radialGradient-1">
            <stop stop-color="#D21983" offset="0%"></stop>
            <stop stop-color="#EC8051" offset="86.5709459%"></stop>
            <stop stop-color="#EAB76A" offset="100%"></stop>
        </radialGradient>
        <linearGradient x1="50%" y1="100%" x2="50%" y2="0%" id="linearGradient-2">
            <stop stop-color="#EA5064" offset="0%"></stop>
            <stop stop-color="#F28E4F" offset="100%"></stop>
        </linearGradient>
    </defs>
    <g id="Symbols" stroke="none" stroke-width="1" fill="none" fill-rule="evenodd">
        <g id="Z-Logo">
            <path d="M147.74,263.25 C174.404,233.093 180,193 180,167 C180,107 137,58.4 110.6,32 C98.6,20 90,0 90,0 C90,0 81.4,20 69.4,32 C43,58.4 0,107 0,167 C0,193 5.596,233.093 32.26,263.25 C58.923,293.407 90,302 90,302 C90,302 121.077,293.407 147.74,263.25 Z" id="Fill-1" fill="url(#radialGradient-1)"></path>
            <path d="M90,181.7412 C119.4,181.7412 145.2,192.2002 159.6,207.8002 C162.4,211.0002 167.6,209.8002 168.4,205.4002 C170.4,194.8002 171.4,183.4002 171.4,171.8002 C171.4,125.4002 153.4,85.2002 127.4,65.2002 C121.4,60.4002 112.6,62.0002 108.6,68.6002 C108.6,68.6002 101.403,82.0002 90,82.0002 C78.597,82.0002 71.4,68.6002 71.4,68.6002 C67.4,62.0002 58.6,60.4002 52.6,65.2002 C26.6,85.2002 8.6,125.4002 8.6,171.8002 C8.6,183.4002 9.6,194.8002 11.6,205.4002 C12.4,209.8002 17.6,211.0002 20.4,207.8002 C34.8,192.2002 60.6,181.7412 90,181.7412" id="Fill-3" fill="url(#linearGradient-2)"></path>
            <path d="M156.5,150 C156.5,152.038 154.493,154.5 152,154.5 L108,154.5 C105.507,154.5 103.5,152.038 103.5,150 L103.5,136 C103.5,133.435 105.435,131.5 108,131.5 L152,131.5 C154.565,131.5 156.5,133.435 156.5,136 L156.5,150 Z M76.5,150 C76.5,152.038 74.493,154.5 72,154.5 L28,154.5 C25.507,154.5 23.5,152.038 23.5,150 L23.5,136 C23.5,133.435 25.435,131.5 28,131.5 L72,131.5 C74.565,131.5 76.5,133.435 76.5,136 L76.5,150 Z M152,124.5 L108,124.5 C102.777,124.5 98.473,127.814 97.024,132.5 L82.976,132.5 C81.527,127.814 77.223,124.5 72,124.5 L28,124.5 C21.551,124.5 16.5,129.551 16.5,136 L16.5,150 C16.5,156.126 21.874,161.5 28,161.5 L72,161.5 C78.126,161.5 83.5,156.126 83.5,150 L83.5,139.5 L96.5,139.5 L96.5,150 C96.5,156.126 101.874,161.5 108,161.5 L152,161.5 C158.126,161.5 163.5,156.126 163.5,150 L163.5,136 C163.5,129.551 158.448,124.5 152,124.5 L152,124.5 Z" id="Fill-5" fill="#FFFFFF"></path>
        </g>
    </g>
</svg>
